<svg xmlns="http://www.w3.org/2000/svg" xmlns:xlink="http://www.w3.org/1999/xlink" viewBox="0 0 500 500"><defs><style>.cls-1{fill:url(#New_Gradient_Swatch_copy_5);}.cls-2{fill:url(#New_Gradient_Swatch_copy_5-2);}.cls-3{fill:url(#New_Gradient_Swatch_copy_5-3);}.cls-4{fill:url(#New_Gradient_Swatch_copy_5-4);}.cls-5{fill:url(#New_Gradient_Swatch_copy_5-5);}.cls-6{fill:url(#New_Gradient_Swatch_copy_5-6);}.cls-7{fill:url(#New_Gradient_Swatch_copy_5-7);}.cls-8{fill:url(#New_Gradient_Swatch_copy_5-8);}.cls-9{fill:url(#New_Gradient_Swatch_copy_5-9);}.cls-10{fill:url(#New_Gradient_Swatch_copy);}.cls-11{fill:url(#New_Gradient_Swatch_copy-2);}.cls-12{fill:url(#New_Gradient_Swatch_copy_6);}.cls-13{fill:url(#New_Gradient_Swatch_copy_6-2);}.cls-14{fill:url(#New_Gradient_Swatch_copy_6-3);}.cls-15{fill:url(#New_Gradient_Swatch_copy_6-4);}.cls-16{fill:url(#New_Gradient_Swatch_copy_6-5);}.cls-17{fill:url(#New_Gradient_Swatch_copy_6-6);}.cls-18{fill:url(#New_Gradient_Swatch_copy_6-7);}.cls-19{fill:url(#New_Gradient_Swatch_copy_6-8);}.cls-20{fill:url(#New_Gradient_Swatch_copy_6-9);}.cls-21{fill:url(#New_Gradient_Swatch_copy_6-10);}.cls-22{fill:url(#New_Gradient_Swatch_copy_6-11);}.cls-23{fill:url(#New_Gradient_Swatch_copy_6-12);}.cls-24{fill:url(#New_Gradient_Swatch_copy_6-13);}.cls-25{fill:url(#New_Gradient_Swatch_copy_6-14);}.cls-26{fill:url(#New_Gradient_Swatch_copy_5-10);}</style><linearGradient id="New_Gradient_Swatch_copy_5" x1="341.18" y1="243.01" x2="270.57" y2="243.01" gradientUnits="userSpaceOnUse"><stop offset="0" stop-color="#ffcd28"/><stop offset="0.67" stop-color="#e38805"/><stop offset="0.78" stop-color="#d46f0a"/><stop offset="1" stop-color="#af3115"/></linearGradient><linearGradient id="New_Gradient_Swatch_copy_5-2" x1="341.18" y1="237.56" x2="270.57" y2="237.56" xlink:href="#New_Gradient_Swatch_copy_5"/><linearGradient id="New_Gradient_Swatch_copy_5-3" x1="385.51" y1="196.58" x2="330.53" y2="196.58" xlink:href="#New_Gradient_Swatch_copy_5"/><linearGradient id="New_Gradient_Swatch_copy_5-4" x1="402.04" y1="234.68" x2="372.43" y2="234.68" xlink:href="#New_Gradient_Swatch_copy_5"/><linearGradient id="New_Gradient_Swatch_copy_5-5" x1="398.48" y1="231.74" x2="373.25" y2="231.74" xlink:href="#New_Gradient_Swatch_copy_5"/><linearGradient id="New_Gradient_Swatch_copy_5-6" x1="238.27" y1="179.14" x2="238.27" y2="257.91" xlink:href="#New_Gradient_Swatch_copy_5"/><linearGradient id="New_Gradient_Swatch_copy_5-7" x1="246.47" y1="223.92" x2="246.47" y2="250.83" xlink:href="#New_Gradient_Swatch_copy_5"/><linearGradient id="New_Gradient_Swatch_copy_5-8" x1="361.55" y1="219.82" x2="361.55" y2="243.42" xlink:href="#New_Gradient_Swatch_copy_5"/><linearGradient id="New_Gradient_Swatch_copy_5-9" x1="121.03" y1="206.89" x2="121.03" y2="225.04" xlink:href="#New_Gradient_Swatch_copy_5"/><linearGradient id="New_Gradient_Swatch_copy" x1="294.15" y1="177.55" x2="298.08" y2="203.69" gradientUnits="userSpaceOnUse"><stop offset="0" stop-color="#fff"/><stop offset="1" stop-color="#0c0e19" stop-opacity="0"/></linearGradient><linearGradient id="New_Gradient_Swatch_copy-2" x1="216.21" y1="177.19" x2="231.78" y2="203" xlink:href="#New_Gradient_Swatch_copy"/><linearGradient id="New_Gradient_Swatch_copy_6" x1="249.91" y1="139.53" x2="249.91" y2="199.26" gradientUnits="userSpaceOnUse"><stop offset="0" stop-color="#fff"/><stop offset="1" stop-color="gray"/></linearGradient><linearGradient id="New_Gradient_Swatch_copy_6-2" x1="322.44" y1="142.38" x2="322.44" y2="155.17" xlink:href="#New_Gradient_Swatch_copy_6"/><linearGradient id="New_Gradient_Swatch_copy_6-3" x1="191.52" y1="135.62" x2="191.52" y2="148.41" xlink:href="#New_Gradient_Swatch_copy_6"/><linearGradient id="New_Gradient_Swatch_copy_6-4" x1="280.3" y1="154.17" x2="280.3" y2="163.1" xlink:href="#New_Gradient_Swatch_copy_6"/><linearGradient id="New_Gradient_Swatch_copy_6-5" x1="221.54" y1="161.06" x2="221.54" y2="169.99" xlink:href="#New_Gradient_Swatch_copy_6"/><linearGradient id="New_Gradient_Swatch_copy_6-6" x1="169.38" y1="155.88" x2="169.38" y2="166.99" xlink:href="#New_Gradient_Swatch_copy_6"/><linearGradient id="New_Gradient_Swatch_copy_6-7" x1="168.01" y1="155.88" x2="168.01" y2="166.99" xlink:href="#New_Gradient_Swatch_copy_6"/><linearGradient id="New_Gradient_Swatch_copy_6-8" x1="351.32" y1="162.43" x2="351.32" y2="173.54" xlink:href="#New_Gradient_Swatch_copy_6"/><linearGradient id="New_Gradient_Swatch_copy_6-9" x1="349.94" y1="162.43" x2="349.94" y2="173.54" xlink:href="#New_Gradient_Swatch_copy_6"/><linearGradient id="New_Gradient_Swatch_copy_6-10" x1="222.76" y1="133.5" x2="222.76" y2="139.31" xlink:href="#New_Gradient_Swatch_copy_6"/><linearGradient id="New_Gradient_Swatch_copy_6-11" x1="222.04" y1="133.5" x2="222.04" y2="139.31" xlink:href="#New_Gradient_Swatch_copy_6"/><linearGradient id="New_Gradient_Swatch_copy_6-12" x1="303.29" y1="134.72" x2="303.29" y2="140.53" xlink:href="#New_Gradient_Swatch_copy_6"/><linearGradient id="New_Gradient_Swatch_copy_6-13" x1="302.57" y1="134.72" x2="302.57" y2="140.53" xlink:href="#New_Gradient_Swatch_copy_6"/><linearGradient id="New_Gradient_Swatch_copy_6-14" x1="252.67" y1="264.76" x2="252.67" y2="334.71" xlink:href="#New_Gradient_Swatch_copy_6"/><linearGradient id="New_Gradient_Swatch_copy_5-10" x1="247.06" y1="346.77" x2="247.06" y2="362.97" xlink:href="#New_Gradient_Swatch_copy_5"/></defs><title>Mesa de trabajo 1 copy</title><g id="OBJECTS"><polygon class="cls-1" points="263.23 241.25 331.69 242.75 264.29 244.77 263.23 241.25"/><path class="cls-2" d="M315.52,237.37l-51.64,1.55-4.33.13a21.51,21.51,0,0,0-3.07-3l6.29.14Z"/><path class="cls-3" d="M378.13,196.43l-42.22,1.26-7.4.22q-1.77-1.32-3.69-2.66l7.72.18Z"/><path class="cls-4" d="M398.06,234.58l-26.79.8-1.42,0c-.16-.51-.32-1-.5-1.48l1.74,0Z"/><path class="cls-5" d="M389.31,231.66l-18.5.56-2.11.06c-.16-.38-.32-.73-.49-1.08l2.42.05Z"/><path class="cls-6" d="M374.13,226.5s-2.61-12.67-13-14.57-37.92.21-44.46-3.38c0,0,12.72-.68,22.35-2.08-2.35-2.07-6.08-5.24-10.55-8.56q-1.77-1.32-3.69-2.66c-1.44-1-2.95-2-4.49-3-1.23-.78-2.49-1.53-3.76-2.25-6-3.4-12.31-6-18-6.49-15.64-1.28-29.76,18.92-33.36,24.5,4.1.61,7.94,1.26,11.34,1.79,15.62,2.42,27-.18,27.37-.27-.31.25-11.7,9-26.55,6.84-15.06-2.19-29.84-6.3-40.52-2.74s-23.27,34.77-34.77,40.8-80.49,3.28-90.9-1.65S102.46,238,102.46,238a21,21,0,0,0,9.08,2.92c18.41,1.2,48.38,4.87,63,2.32a26.6,26.6,0,0,0,15.8-8.76l-28.41-.65s6.16-6,21.83-10.25a122.62,122.62,0,0,1,24.3-4,49.93,49.93,0,0,1,10.53-8.18c10.64-5.93,24.84-6,37.84-4.58,2.84-3.88,12.12-15.76,23.71-22.35-11-.59-39.51-1.83-55.07.09-14,1.73-50.41,19-51.55,19.5,1-.69,30.61-20.6,54.18-23.57,20.9-2.63,56.66-.92,65.51-.44a23.83,23.83,0,0,1,2.67-.1c8.53.23,18.92,4.82,28.25,10.18,1.07.61,2.13,1.24,3.17,1.87,1.83,1.11,3.59,2.24,5.28,3.35,1.17.76,2.29,1.52,3.37,2.26,4.3,2.95,7.85,5.63,10.15,7.43,11.39-2.93,19.23.72,24.06,6.39S374.13,226.5,374.13,226.5Z"/><path class="cls-7" d="M265.9,250.83a33.43,33.43,0,0,0-6.35-11.78,21.51,21.51,0,0,0-3.07-3,15.94,15.94,0,0,0-10-3.73c-8.57,0-15.95,7.54-19.43,18.47,0-14.86,8.71-26.89,19.43-26.89,6.82,0,12.84,4.89,16.3,12.29a27.41,27.41,0,0,1,1.11,2.71c.28.76.53,1.55.75,2.36a31.66,31.66,0,0,1,.76,3.46A36.62,36.62,0,0,1,265.9,250.83Z"/><path class="cls-8" d="M371.74,243.42a44,44,0,0,0-1.89-7c-.16-.45-.32-.88-.5-1.29s-.42-1-.65-1.46-.32-.64-.49-1c-1.87-3.46-4.17-5.5-6.67-5.5-4.48,0-8.37,6.62-10.19,16.2,0-13,4.57-23.58,10.19-23.58,4,0,7.41,5.25,9.09,12.92.07.28.13.56.18.85.1.51.2,1,.28,1.55s.13.81.18,1.23A51.19,51.19,0,0,1,371.74,243.42Z"/><path class="cls-9" d="M117.94,212.14c9.36-2.88,22.18-3.46,22.18-3.46s-12.46-4.29-24.48.43c-13.4,5.27-13.7,15.93-13.7,15.93S108.59,215,117.94,212.14Z"/><path class="cls-10" d="M273.05,203.78s8.91-15.72,22.21-17.38,27.05,11.94,27.05,11.94Z"/><path class="cls-11" d="M182.69,203.5s25.19-14.87,42.33-16.73,46.24-.2,46.24-.2l-20,17.13Z"/><path class="cls-12" d="M347,190.25a19.66,19.66,0,0,1-.14,2.32A19.84,19.84,0,0,0,313,181.3c-1-.42-2-.8-2.91-1.15a20,20,0,0,1,8.29-7.67,16,16,0,0,0-13.85-11.27,26.66,26.66,0,0,1,.27,3.71,24.33,24.33,0,0,1-.18,3,24.69,24.69,0,0,0-1.88-6.74,23.79,23.79,0,0,0-2-3.79,25.44,25.44,0,0,0-35.7-7.05c-.46.32-.93.66-1.37,1a25.39,25.39,0,0,0-9.44,16.57,24.35,24.35,0,0,1-.17-3,25.27,25.27,0,0,1,6.67-17.16A16,16,0,0,0,236,151.87a25.39,25.39,0,0,1,13.93,22.67c0,.56,0,1.12,0,1.67s-.07.87-.12,1.3c-.06-.43-.13-.87-.21-1.29a25.4,25.4,0,0,0-15.38-18.86.34.34,0,0,0,0,.1.41.41,0,0,1,0-.11,25.41,25.41,0,0,0-31,9.86,23.53,23.53,0,0,0-1.53,2.73,25.14,25.14,0,0,0-2.25,7.57,24.17,24.17,0,0,1-.18-3,25.4,25.4,0,0,1,.64-5.7,16,16,0,0,0-22.5,8.82h0a19.84,19.84,0,0,1,14.08,12.59c-.66.33-1.3.67-1.92,1a19.85,19.85,0,0,0-36.41,8,19.78,19.78,0,0,1,19.67-22.13,19.62,19.62,0,0,1,3.78.36,15.94,15.94,0,0,1,24.33-12,25.39,25.39,0,0,1,33.83-14.23,15.93,15.93,0,0,1,28-5.35,25.39,25.39,0,0,1,41,11.32,15.89,15.89,0,0,1,15.4,15A19.81,19.81,0,0,1,347,190.25Z"/><path class="cls-13" d="M332,151.85c-5.93,0-9.55,3.62-9.55,9.55,0-5.93-3.62-9.55-9.55-9.55,5.93,0,9.55-3.63,9.55-9.56C322.44,148.22,326.06,151.85,332,151.85Z"/><path class="cls-14" d="M201.08,145.09c-5.93,0-9.56,3.62-9.56,9.55,0-5.93-3.62-9.55-9.55-9.55,5.93,0,9.55-3.63,9.55-9.56C191.52,141.46,195.15,145.09,201.08,145.09Z"/><path class="cls-15" d="M287,160.78c-4.14,0-6.67,2.53-6.67,6.67,0-4.14-2.53-6.67-6.67-6.67,4.14,0,6.67-2.53,6.67-6.67C280.3,158.25,282.83,160.78,287,160.78Z"/><path class="cls-16" d="M228.21,167.67c-4.14,0-6.67,2.53-6.67,6.67,0-4.14-2.53-6.67-6.67-6.67,4.14,0,6.67-2.53,6.67-6.67C221.54,165.14,224.07,167.67,228.21,167.67Z"/><path class="cls-17" d="M169.38,155.85a5.71,5.71,0,1,0,5.71,5.71A5.7,5.7,0,0,0,169.38,155.85Zm0,10.09a4.83,4.83,0,1,1,4.83-4.83A4.82,4.82,0,0,1,169.38,165.94Z"/><path class="cls-18" d="M169.12,159.41A1.12,1.12,0,1,1,168,158.3,1.12,1.12,0,0,1,169.12,159.41Z"/><path class="cls-19" d="M351.31,162.4a5.71,5.71,0,1,0,5.72,5.71A5.71,5.71,0,0,0,351.31,162.4Zm0,10.09a4.83,4.83,0,1,1,4.83-4.83A4.83,4.83,0,0,1,351.31,172.49Z"/><path class="cls-20" d="M351.06,166a1.12,1.12,0,1,1-1.12-1.11A1.12,1.12,0,0,1,351.06,166Z"/><path class="cls-21" d="M222.75,133.48a3,3,0,1,0,3,3A3,3,0,0,0,222.75,133.48Zm0,5.28a2.53,2.53,0,1,1,2.53-2.53A2.52,2.52,0,0,1,222.75,138.76Z"/><circle class="cls-22" cx="222.04" cy="135.35" r="0.58"/><path class="cls-23" d="M303.28,134.71a3,3,0,1,0,3,3A3,3,0,0,0,303.28,134.71Zm0,5.28a2.53,2.53,0,1,1,2.53-2.53A2.52,2.52,0,0,1,303.28,140Z"/><path class="cls-24" d="M303.15,136.57a.58.58,0,0,1-.58.59.59.59,0,1,1,0-1.17A.58.58,0,0,1,303.15,136.57Z"/></g><g id="TEXTS"><path class="cls-25" d="M138.82,327.37c-2.87,1.32-8.36,2.63-15.1,2.63-15.62,0-25.63-9.86-22.43-28,3.06-17.34,16.89-29.09,34.07-29.09,6.9,0,11,1.48,12.71,2.46l-2.75,5.84a23.32,23.32,0,0,0-10.78-2.3c-13,0-23.08,8.3-25.64,22.85-2.39,13.56,3.88,22.27,17.36,22.27a31.6,31.6,0,0,0,12.08-2.3Z"/><path class="cls-25" d="M159.82,311.76,151,329.18h-7.4l28.6-55.4h8.63l9.13,55.4h-7.64l-2.85-17.42ZM179,306.17l-2.62-15.95c-.59-3.62-.83-6.9-1.09-10.11h-.16c-1.41,3.29-2.9,6.66-4.57,10l-8.25,16Z"/><path class="cls-25" d="M207.73,274.52a77.91,77.91,0,0,1,13.93-1.15c7.64,0,12.33,1.4,15.23,4.52,2.36,2.47,3.26,6.25,2.5,10.52-1.29,7.32-6.75,12.17-12.93,14.14l0,.25c4,1.48,5.86,5.42,6.16,11.17.45,7.73.82,13.07,1.6,15.21h-7.4c-.63-1.56-1-6.33-1.37-13.23-.29-7.65-2.75-10.52-9.2-10.77h-6.74l-4.23,24h-7.15Zm2.7,25.23h7.32c7.64,0,13.23-4.19,14.34-10.52,1.27-7.15-3.36-10.27-10.91-10.35a31.57,31.57,0,0,0-7.18.65Z"/><path class="cls-25" d="M252.67,329.18l-4.29-55.4h7.56l1.64,28c.42,6.9.69,13.81.73,19.15h.17c1.87-5.5,4.76-12.08,7.91-19.23l12.32-28h7.48L288,301.89c.4,6.58.72,13.15.51,19h.17c2.22-6.08,4.87-12.25,7.81-19.15l12.25-28H316l-25.47,55.4h-7.48l-1.9-28.85a158.77,158.77,0,0,1-.43-18.08h-.16c-2,5.5-4.15,10.93-7.46,18.08l-13,28.85Z"/><path class="cls-25" d="M313.72,320.47a22,22,0,0,0,12.18,3.62c7.32,0,12.27-3.87,13.26-9.46.91-5.17-1.52-8.13-8.5-11-8.47-3.21-13.24-7.89-11.86-15.7,1.52-8.63,9.8-15,20.57-15,5.67,0,9.55,1.31,11.77,2.71l-3,5.83a19.44,19.44,0,0,0-10.06-2.63c-7.56,0-11.24,4.53-11.9,8.31-.92,5.18,2,7.72,9.13,10.68,8.73,3.62,12.7,8.14,11.27,16.28-1.51,8.55-9.14,15.94-22.21,15.94-5.35,0-10.91-1.56-13.52-3.53Z"/><path class="cls-25" d="M370.61,273.78,366.52,297h26.8l4.09-23.18h7.23l-9.77,55.4h-7.23l4.58-26h-26.8l-4.58,26h-7.15l9.77-55.4Z"/><path class="cls-26" d="M116.46,360.53a9,9,0,0,1-3.74.67c-4,0-7-2.52-7-7.16a7,7,0,0,1,7.39-7.43,7.58,7.58,0,0,1,3.36.63l-.44,1.49a6.74,6.74,0,0,0-2.86-.59c-3.31,0-5.52,2.12-5.52,5.84,0,3.46,2,5.69,5.44,5.69a7.25,7.25,0,0,0,3-.59Z"/><path class="cls-26" d="M124.57,346.09h1.84V361h-1.84Z"/><path class="cls-26" d="M136.43,356.25a3.26,3.26,0,0,0,3.49,3.53,6.71,6.71,0,0,0,2.81-.53l.32,1.32a8.15,8.15,0,0,1-3.38.63c-3.13,0-5-2.05-5-5.12s1.8-5.48,4.76-5.48c3.32,0,4.2,2.92,4.2,4.79a7.45,7.45,0,0,1-.06.86Zm5.42-1.33c0-1.17-.48-3-2.56-3-1.87,0-2.69,1.72-2.84,3Z"/><path class="cls-26" d="M157.43,361l-.15-1.28h-.06a3.77,3.77,0,0,1-3.11,1.51,2.89,2.89,0,0,1-3.1-2.91c0-2.46,2.18-3.81,6.11-3.78v-.21a2.1,2.1,0,0,0-2.31-2.36,5.1,5.1,0,0,0-2.65.76l-.42-1.22a6.37,6.37,0,0,1,3.34-.9c3.11,0,3.86,2.12,3.86,4.16v3.8a14.85,14.85,0,0,0,.17,2.43Zm-.27-5.18c-2-.05-4.31.31-4.31,2.29a1.64,1.64,0,0,0,1.75,1.76,2.52,2.52,0,0,0,2.45-1.7,1.76,1.76,0,0,0,.11-.59Z"/><path class="cls-26" d="M167.81,353.58c0-1.05,0-1.91-.09-2.75h1.64l.11,1.68h0a3.72,3.72,0,0,1,3.36-1.91c1.4,0,3.59.84,3.59,4.32V361h-1.85v-5.85c0-1.64-.61-3-2.35-3a2.62,2.62,0,0,0-2.48,1.89,2.78,2.78,0,0,0-.13.86V361h-1.84Z"/><path class="cls-26" d="M205.63,360.53a9.06,9.06,0,0,1-3.74.67c-4,0-7-2.52-7-7.16a7,7,0,0,1,7.39-7.43,7.66,7.66,0,0,1,3.36.63l-.44,1.49a6.77,6.77,0,0,0-2.86-.59c-3.32,0-5.52,2.12-5.52,5.84,0,3.46,2,5.69,5.44,5.69a7.28,7.28,0,0,0,3-.59Z"/><path class="cls-26" d="M219.21,361l-.14-1.28H219a3.77,3.77,0,0,1-3.1,1.51,2.89,2.89,0,0,1-3.11-2.91c0-2.46,2.18-3.81,6.11-3.78v-.21a2.1,2.1,0,0,0-2.31-2.36,5.1,5.1,0,0,0-2.65.76l-.42-1.22a6.37,6.37,0,0,1,3.34-.9c3.11,0,3.86,2.12,3.86,4.16v3.8a14.85,14.85,0,0,0,.17,2.43Zm-.27-5.18c-2-.05-4.3.31-4.3,2.29a1.63,1.63,0,0,0,1.74,1.76,2.52,2.52,0,0,0,2.45-1.7,1.76,1.76,0,0,0,.11-.59Z"/><path class="cls-26" d="M229.59,354c0-1.2,0-2.22-.09-3.17h1.62l.06,2h.09a3,3,0,0,1,2.81-2.23,2.15,2.15,0,0,1,.53.06v1.75a2.38,2.38,0,0,0-.63-.07,2.59,2.59,0,0,0-2.48,2.38,5.29,5.29,0,0,0-.09.86V361h-1.82Z"/><path class="cls-26" d="M262.62,360.53a9,9,0,0,1-3.74.67c-4,0-7-2.52-7-7.16a7,7,0,0,1,7.39-7.43,7.62,7.62,0,0,1,3.36.63l-.44,1.49a6.74,6.74,0,0,0-2.86-.59c-3.31,0-5.52,2.12-5.52,5.84,0,3.46,2,5.69,5.44,5.69a7.25,7.25,0,0,0,3-.59Z"/><path class="cls-26" d="M270.73,346.09h1.84V361h-1.84Z"/><path class="cls-26" d="M282.59,356.25a3.26,3.26,0,0,0,3.49,3.53,6.71,6.71,0,0,0,2.81-.53l.31,1.32a8.11,8.11,0,0,1-3.38.63c-3.12,0-5-2.05-5-5.12s1.8-5.48,4.76-5.48c3.32,0,4.2,2.92,4.2,4.79a7.45,7.45,0,0,1-.06.86Zm5.42-1.33c0-1.17-.48-3-2.56-3-1.87,0-2.69,1.72-2.84,3Z"/><path class="cls-26" d="M303.59,361l-.15-1.28h-.06a3.79,3.79,0,0,1-3.11,1.51,2.9,2.9,0,0,1-3.11-2.91c0-2.46,2.19-3.81,6.12-3.78v-.21A2.11,2.11,0,0,0,301,352a5.08,5.08,0,0,0-2.65.76l-.42-1.22a6.37,6.37,0,0,1,3.34-.9c3.11,0,3.86,2.12,3.86,4.16v3.8a13.82,13.82,0,0,0,.17,2.43Zm-.27-5.18c-2-.05-4.31.31-4.31,2.29a1.64,1.64,0,0,0,1.75,1.76,2.52,2.52,0,0,0,2.45-1.7,1.76,1.76,0,0,0,.11-.59Z"/><path class="cls-26" d="M314,353.58c0-1.05,0-1.91-.09-2.75h1.64l.1,1.68h0A3.74,3.74,0,0,1,319,350.6c1.41,0,3.6.84,3.6,4.32V361h-1.85v-5.85c0-1.64-.61-3-2.35-3a2.62,2.62,0,0,0-2.48,1.89,2.51,2.51,0,0,0-.13.86V361H314Z"/><path class="cls-26" d="M341.9,346.84h1.82v12.62h6V361H341.9Z"/><path class="cls-26" d="M359.68,348a1.15,1.15,0,0,1-2.29,0,1.14,1.14,0,0,1,1.16-1.16A1.1,1.1,0,0,1,359.68,348Zm-2.06,13V350.83h1.85V361Z"/><path class="cls-26" d="M368.61,361v-8.75h-1.43v-1.41h1.43v-.48a4.79,4.79,0,0,1,1.17-3.55,3.57,3.57,0,0,1,2.48-.95,4.16,4.16,0,0,1,1.57.3l-.25,1.43a2.68,2.68,0,0,0-1.17-.23c-1.58,0-2,1.38-2,2.94v.54h2.46v1.41h-2.46V361Z"/><path class="cls-26" d="M381.18,356.25a3.26,3.26,0,0,0,3.49,3.53,6.71,6.71,0,0,0,2.81-.53l.32,1.32a8.11,8.11,0,0,1-3.38.63c-3.13,0-5-2.05-5-5.12s1.81-5.48,4.77-5.48c3.31,0,4.2,2.92,4.2,4.79a7,7,0,0,1-.07.86Zm5.42-1.33c0-1.17-.48-3-2.56-3-1.87,0-2.69,1.72-2.83,3Z"/></g></svg>